<svg width="24" height="24" viewBox="0 0 24 24" fill="none" xmlns="http://www.w3.org/2000/svg">
<path d="M2.31783 15.8107L3.0142 15.5893L2.31783 15.8107ZM1.15331 9.20029L1.8572 9.39647L1.15331 9.20029ZM6.01609 4.17823L5.58047 3.59156L6.01609 4.17823ZM1.27211 8.82663L1.96004 9.07297L1.27211 8.82663ZM5.48859 22.0892L5.07494 22.6915L5.48859 22.0892ZM5.17758 21.8582L4.72063 22.4284L5.17758 21.8582ZM21.6822 15.8107L20.9858 15.5893L21.6822 15.8107ZM18.8224 21.8582L19.2794 22.4284L18.8224 21.8582ZM18.5114 22.0892L18.9251 22.6915L18.5114 22.0892ZM17.9839 4.17823L18.4195 3.59156L17.9839 4.17823ZM22.7279 8.82663L22.04 9.07297L22.7279 8.82663ZM22.8467 9.20029L22.1428 9.39647L22.8467 9.20029ZM12.1922 1.0036L12.1648 1.7338L12.1922 1.0036ZM11.8078 1.0036L11.8352 1.7338L11.8078 1.0036ZM9.90271 17.2234C9.49915 17.2234 9.172 17.5506 9.172 17.9542C9.172 18.3577 9.49915 18.6849 9.90271 18.6849V17.2234ZM14.0973 18.6849C14.5008 18.6849 14.828 18.3577 14.828 17.9542C14.828 17.5506 14.5008 17.2234 14.0973 17.2234V18.6849ZM3.0142 15.5893C2.4754 13.8946 2.08944 12.6775 1.88669 11.6879C1.68728 10.7147 1.68085 10.0292 1.8572 9.39647L0.449422 9.00412C0.188013 9.94205 0.229753 10.8819 0.455001 11.9812C0.676901 13.0642 1.09208 14.367 1.62146 16.0321L3.0142 15.5893ZM5.58047 3.59156C4.19496 4.62034 3.10851 5.42582 2.30491 6.16981C1.48828 6.92587 0.912558 7.66322 0.584167 8.58029L1.96004 9.07297C2.18083 8.4564 2.57883 7.90781 3.29776 7.2422C4.02973 6.56452 5.04068 5.81262 6.45171 4.7649L5.58047 3.59156ZM1.8572 9.39647C1.8876 9.28737 1.92191 9.17946 1.96004 9.07297L0.584167 8.58029C0.53419 8.71986 0.489246 8.86123 0.449422 9.00412L1.8572 9.39647ZM12 22.2693C10.2554 22.2693 9.00629 22.2683 8.02569 22.1599C7.06302 22.0534 6.43035 21.8495 5.90225 21.4868L5.07494 22.6915C5.87318 23.2397 6.76786 23.4911 7.86512 23.6124C8.94447 23.7317 10.2879 23.7307 12 23.7307V22.2693ZM1.62146 16.0321C2.15081 17.6971 2.56422 19.0006 3.00769 20.0104C3.45767 21.0349 3.96558 21.8233 4.72063 22.4284L5.63453 21.288C5.13211 20.8854 4.74422 20.33 4.34575 19.4227C3.94076 18.5006 3.55304 17.2842 3.0142 15.5893L1.62146 16.0321ZM5.90225 21.4868C5.81069 21.4239 5.72139 21.3576 5.63453 21.288L4.72063 22.4284C4.83551 22.5205 4.95369 22.6083 5.07494 22.6915L5.90225 21.4868ZM20.9858 15.5893C20.447 17.2842 20.0592 18.5006 19.6542 19.4227C19.2558 20.33 18.8679 20.8854 18.3655 21.288L19.2794 22.4284C20.0344 21.8233 20.5423 21.0349 20.9923 20.0104C21.4358 19.0006 21.8492 17.6971 22.3785 16.0321L20.9858 15.5893ZM12 23.7307C13.7121 23.7307 15.0555 23.7317 16.1349 23.6124C17.2321 23.4911 18.1268 23.2397 18.9251 22.6915L18.0977 21.4868C17.5696 21.8495 16.937 22.0534 15.9743 22.1599C14.9937 22.2683 13.7446 22.2693 12 22.2693V23.7307ZM18.3655 21.288C18.2786 21.3576 18.1893 21.4239 18.0977 21.4868L18.9251 22.6915C19.0463 22.6083 19.1645 22.5205 19.2794 22.4284L18.3655 21.288ZM17.5483 4.7649C18.9593 5.81262 19.9703 6.56452 20.7022 7.2422C21.4212 7.90781 21.8192 8.4564 22.04 9.07297L23.4158 8.58029C23.0874 7.66322 22.5117 6.92587 21.6951 6.16981C20.8915 5.42582 19.805 4.62034 18.4195 3.59156L17.5483 4.7649ZM22.3785 16.0321C22.9079 14.367 23.3231 13.0642 23.545 11.9812C23.7702 10.8819 23.812 9.94205 23.5506 9.00412L22.1428 9.39647C22.3191 10.0292 22.3127 10.7147 22.1133 11.6879C21.9106 12.6775 21.5246 13.8946 20.9858 15.5893L22.3785 16.0321ZM22.04 9.07297C22.0781 9.17946 22.1124 9.28736 22.1428 9.39647L23.5506 9.00412C23.5108 8.86123 23.4658 8.71986 23.4158 8.58029L22.04 9.07297ZM18.4195 3.59156C17.0342 2.56289 15.9487 1.75563 15.0076 1.20422C14.0519 0.644207 13.1833 0.30953 12.2196 0.273401L12.1648 1.7338C12.7981 1.75754 13.427 1.97193 14.2688 2.46514C15.1252 2.96695 16.1371 3.71706 17.5483 4.7649L18.4195 3.59156ZM6.45171 4.7649C7.86288 3.71706 8.87479 2.96695 9.73122 2.46514C10.573 1.97193 11.2019 1.75754 11.8352 1.7338L11.7804 0.273401C10.8167 0.30953 9.94814 0.644207 8.99239 1.20422C8.05133 1.75563 6.96583 2.56289 5.58047 3.59156L6.45171 4.7649ZM12.2196 0.273401C12.0732 0.267914 11.9268 0.267914 11.7804 0.273401L11.8352 1.7338C11.945 1.72968 12.055 1.72968 12.1648 1.7338L12.2196 0.273401ZM9.90271 18.6849H14.0973V17.2234H9.90271V18.6849Z" fill="#B6B6B6"/>
</svg>
