<svg width="24" height="23" viewBox="0 0 24 23" fill="none" xmlns="http://www.w3.org/2000/svg">
<g filter="url(#filter0_d_22_1132)">
<path d="M9.15299 4.408C10.42 2.136 11.053 1 12 1C12.947 1 13.58 2.136 14.847 4.408L15.175 4.996C15.535 5.642 15.715 5.965 15.995 6.178C16.275 6.391 16.625 6.47 17.325 6.628L17.961 6.772C20.421 7.329 21.65 7.607 21.943 8.548C22.235 9.488 21.397 10.469 19.72 12.43L19.286 12.937C18.81 13.494 18.571 13.773 18.464 14.117C18.357 14.462 18.393 14.834 18.465 15.577L18.531 16.254C18.784 18.871 18.911 20.179 18.145 20.76C17.379 21.342 16.227 20.811 13.925 19.751L13.328 19.477C12.674 19.175 12.347 19.025 12 19.025C11.653 19.025 11.326 19.175 10.671 19.477L10.076 19.751C7.77299 20.811 6.62099 21.341 5.85599 20.761C5.08899 20.179 5.21599 18.871 5.46899 16.254L5.53499 15.578C5.60699 14.834 5.64299 14.462 5.53499 14.118C5.42899 13.773 5.18999 13.494 4.71399 12.938L4.27999 12.43C2.60299 10.47 1.76499 9.489 2.05699 8.548C2.34999 7.607 3.57999 7.328 6.03999 6.772L6.67599 6.628C7.37499 6.47 7.72399 6.391 8.00499 6.178C8.28499 5.965 8.46499 5.642 8.82499 4.996L9.15299 4.408Z" stroke="#B6B6B6" stroke-width="1.5" shape-rendering="crispEdges"/>
</g>
<defs>
<filter id="filter0_d_22_1132" x="-2.75073" y="0.25" width="29.5015" height="29.4998" filterUnits="userSpaceOnUse" color-interpolation-filters="sRGB">
<feFlood flood-opacity="0" result="BackgroundImageFix"/>
<feColorMatrix in="SourceAlpha" type="matrix" values="0 0 0 0 0 0 0 0 0 0 0 0 0 0 0 0 0 0 127 0" result="hardAlpha"/>
<feOffset dy="4"/>
<feGaussianBlur stdDeviation="2"/>
<feComposite in2="hardAlpha" operator="out"/>
<feColorMatrix type="matrix" values="0 0 0 0 0 0 0 0 0 0 0 0 0 0 0 0 0 0 0.25 0"/>
<feBlend mode="normal" in2="BackgroundImageFix" result="effect1_dropShadow_22_1132"/>
<feBlend mode="normal" in="SourceGraphic" in2="effect1_dropShadow_22_1132" result="shape"/>
</filter>
</defs>
</svg>
